# Made using Asset Forge (www.assetforge.io) version 1.3 

mtllib HovercraftFeet.mtl 

v -0.5995668 0 -0.71
v -0.7 0 -0.71
v -0.5995668 0 -0.49
v -0.7 0 -0.49
v -0.6445668 0.02039787 -0.5531937
v -0.6807558 0.02039787 -0.5531937
v -0.4234419 0.2409921 -0.5531937
v -0.6807558 0.05649998 -0.5531937
v -0.4596309 0.2770942 -0.5531937
v -0.6807558 0.02039787 -0.6468064
v -0.6445668 0.02039787 -0.6468064
v -0.6807558 0.05649998 -0.6468064
v -0.4234419 0.2409921 -0.6468064
v -0.4596309 0.2770942 -0.6468064
v -0.7 0.02039787 -0.71
v -0.7 0.02039787 -0.49
v -0.5995668 0.02039787 -0.49
v -0.5995668 0.02039787 -0.71
v -0.438844 0.3140511 -0.6678353
v -0.438844 0.3140511 -0.5321648
v -0.2 0.457578 -0.666
v -0.2 0.415156 -0.666
v -0.2 0.457578 -0.534
v -0.2 0.415156 -0.534
v -0.242524 0.457578 -0.666
v -0.242524 0.457578 -0.534
v -0.3863962 0.2617292 -0.6678353
v -0.3863962 0.2617292 -0.5321648
v -0.3700961 0.2454682 -0.49
v -0.4551441 0.3303121 -0.49
v -0.2 0.415156 -0.49
v -0.285048 0.5 -0.49
v -0.3700961 0.2454682 -0.71
v -0.2 0.415156 -0.71
v -0.4551441 0.3303121 -0.71
v -0.285048 0.5 -0.71
vn 0 -0.5 0
vn 0 0 1
vn -0.02213997 -0.02219322 0.9980326
vn -0.05910554 -0.0592477 0.9858931
vn 0 0 -1
vn -0.02955277 -0.02962384 -0.996492
vn -0.05910554 -0.0592477 -0.9858931
vn -0.5 0 0
vn -0.4357943 0.2451191 0
vn -0.4357943 0.2451191 0
vn -0.4116718 0.2837716 0
vn -0.3838848 0.320363 0
vn 0.5 0 0
vn 0 0.5 0
vn -0.08803406 -0.08824582 -0.9684269
vn -0.08803407 -0.08824584 -0.9684269
vn -0.3531284 0.3539778 0
vn 0.2828789 -0.4122857 0
vn 0.3194845 -0.3846162 0
vn 0.3531284 -0.3539779 0
vn -0.08803406 -0.08824582 0.9684269
vn -0.08803407 -0.08824584 0.9684269
vn 0.244225 -0.436296 0
vn -0.3531284 0.3539779 0
vn 0.3531284 0.3539778 0
vn 0.3531284 0.3539779 0
vn 0.3531284 0.3539778 0
vn 0.3531284 0.3539779 0
vn -0.3531284 -0.3539778 0
vn -0.3531284 -0.3539778 0
vn -0.3531284 -0.3539778 0
vn -0.3531284 -0.3539778 0
vn 0.3531284 -0.3539778 0
vt 0.5995668 0.71
vt 0.7 0.71
vt 0.5995668 0.49
vt 0.7 0.49
vt -0.6445668 0.02039787
vt -0.6807558 0.02039787
vt -0.4234419 0.2409921
vt -0.6807558 0.05649998
vt -0.4596309 0.2770942
vt 0.6807558 0.02039787
vt 0.6445668 0.02039787
vt 0.6807558 0.05649998
vt 0.4234419 0.2409921
vt 0.4596309 0.2770942
vt -0.71 0
vt -0.71 0.02039787
vt -0.49 0
vt -0.49 0.02039787
vt -0.5995668 0
vt -0.7 0
vt -0.5995668 0.02039787
vt -0.7 0.02039787
vt 0.7 0
vt 0.5995668 0
vt 0.7 0.02039787
vt 0.5995668 0.02039787
vt -0.6678353 0.3140511
vt -0.5321648 0.3140511
vt -0.6468064 0.2770942
vt -0.5531937 0.2770942
vt -0.6468064 0.05649998
vt -0.5531937 0.05649998
vt -0.6468064 0.02039787
vt -0.5531937 0.02039787
vt 0.666 0.457578
vt 0.666 0.415156
vt 0.534 0.457578
vt 0.534 0.415156
vt 0.2 -0.666
vt 0.2 -0.534
vt 0.242524 -0.666
vt 0.242524 -0.534
vt 0.242524 0.457578
vt 0.2 0.415156
vt 0.2 0.457578
vt 0.3863962 0.2617292
vt 0.438844 0.3140511
vt 0.4596309 -0.6468064
vt 0.4596309 -0.5531937
vt 0.6807558 -0.6468064
vt 0.6807558 -0.5531937
vt 0.4234419 0.5531937
vt 0.4234419 0.6468064
vt 0.6445668 0.5531937
vt 0.6445668 0.6468064
vt -0.2 0.457578
vt -0.2 0.415156
vt -0.242524 0.457578
vt -0.3863962 0.2617292
vt -0.438844 0.3140511
vt 0.3863962 0.5321648
vt 0.3863962 0.6678353
vt 0.71 0.02039787
vt 0.71 0
vt 0.49 0.02039787
vt 0.49 0
vt 0.5995668 -0.49
vt 0.6445668 -0.6468064
vt 0.5995668 -0.71
vt 0.7 -0.71
vt 0.6445668 -0.5531937
vt 0.7 -0.49
vt -0.3700961 0.2454682
vt -0.4551441 0.3303121
vt -0.285048 0.5
vt 0.3700961 0.2454682
vt 0.4551441 0.3303121
vt 0.285048 0.5
vt 0.285048 -0.71
vt 0.285048 -0.49
vt 0.4551441 -0.71
vt 0.4551441 -0.49
vt 0.2 -0.71
vt 0.2 -0.49
vt 0.3700961 0.71
vt 0.3700961 0.49
vt 0.4551441 0.49
vt 0.438844 0.5321648
vt 0.438844 0.6678353
vt 0.4551441 0.71
vt 0.2 0.49
vt 0.2 0.534
vt 0.2 0.666
vt 0.2 0.71

usemtl glass (Instance) (Instance)
usemap glass (Instance) (Instance)
f 3/3/1 2/2/1 1/1/1
f 2/2/1 3/3/1 4/4/1
f 7/7/3 6/6/2 5/5/2
f 6/6/2 7/7/3 8/8/2
f 8/8/2 7/7/3 9/9/4
f 12/12/5 11/11/5 10/10/5
f 11/11/5 12/12/5 13/13/6
f 13/13/6 12/12/5 14/14/7
f 4/17/8 15/16/8 2/15/8
f 15/16/8 4/17/8 16/18/8
f 17/21/2 4/20/2 3/19/2
f 4/20/2 17/21/2 16/22/2
f 15/25/5 1/24/5 2/23/5
f 1/24/5 15/25/5 18/26/5
f 14/29/11 20/28/10 19/27/9
f 20/28/10 14/29/11 9/30/12
f 10/33/8 8/32/8 12/31/8
f 8/32/8 10/33/8 6/34/8
f 23/37/13 22/36/13 21/35/13
f 22/36/13 23/37/13 24/38/13
f 25/41/14 23/40/14 21/39/14
f 23/40/14 25/41/14 26/42/14
f 21/45/5 22/44/5 25/43/5
f 14/14/7 27/46/15 13/13/6
f 27/46/15 14/14/7 19/47/16
f 12/50/17 9/49/12 14/48/11
f 9/49/12 12/50/17 8/51/17
f 5/54/20 13/53/19 7/52/18
f 13/53/19 5/54/20 11/55/20
f 26/58/2 24/57/2 23/56/2
f 28/59/21 9/9/4 7/7/3
f 9/9/4 28/59/21 20/60/22
f 7/52/18 27/62/23 28/61/23
f 27/62/23 7/52/18 13/53/19
f 17/65/13 1/64/13 18/63/13
f 1/64/13 17/65/13 3/66/13
f 18/69/14 11/68/14 17/67/14
f 11/68/14 18/69/14 15/70/14
f 11/68/14 15/70/14 10/50/14
f 10/50/14 15/70/14 6/51/14
f 5/71/14 17/67/14 11/68/14
f 17/67/14 5/71/14 16/72/14
f 16/72/14 5/71/14 6/51/14
f 16/72/14 6/51/14 15/70/14

usemtl _defaultMat (Instance) (Instance)
usemap _defaultMat (Instance) (Instance)
f 31/57/2 30/74/2 29/73/2
f 30/74/2 31/57/2 32/75/2
f 35/77/5 34/44/5 33/76/5
f 34/44/5 35/77/5 36/78/5
f 35/81/24 32/80/24 36/79/24
f 32/80/24 35/81/24 30/82/24
f 36/79/27 22/39/26 34/83/25
f 22/39/26 36/79/27 25/41/26
f 25/41/26 36/79/27 26/42/25
f 32/80/25 26/42/25 36/79/27
f 31/84/26 26/42/25 32/80/25
f 26/42/25 31/84/26 24/40/28
f 29/86/29 28/61/30 33/85/29
f 28/61/30 29/86/29 30/87/31
f 28/61/30 30/87/31 20/88/30
f 20/88/30 30/87/31 19/89/29
f 27/62/31 33/85/29 28/61/30
f 33/85/29 27/62/31 35/90/32
f 35/90/32 27/62/31 19/89/29
f 35/90/32 19/89/29 30/87/31
f 29/86/20 24/92/33 31/91/33
f 24/92/33 29/86/20 22/93/33
f 22/93/33 29/86/20 34/94/20
f 34/94/20 29/86/20 33/85/20
v 0.5995668 0 -0.49
v 0.7 0 -0.49
v 0.5995669 0 -0.71
v 0.7 0 -0.71
v 0.6445668 0.02039787 -0.6468064
v 0.6807558 0.02039787 -0.6468064
v 0.4234419 0.2409921 -0.6468064
v 0.6807558 0.05649998 -0.6468064
v 0.4596309 0.2770942 -0.6468064
v 0.6807558 0.02039787 -0.5531937
v 0.6445668 0.02039787 -0.5531937
v 0.6807558 0.05649998 -0.5531937
v 0.4234419 0.2409921 -0.5531937
v 0.4596309 0.2770942 -0.5531937
v 0.7 0.02039787 -0.49
v 0.7 0.02039787 -0.71
v 0.5995669 0.02039787 -0.71
v 0.5995668 0.02039787 -0.49
v 0.438844 0.3140511 -0.5321648
v 0.438844 0.3140511 -0.6678353
v 0.2 0.457578 -0.534
v 0.2 0.415156 -0.534
v 0.2 0.457578 -0.6660001
v 0.2 0.415156 -0.6660001
v 0.242524 0.457578 -0.534
v 0.242524 0.457578 -0.666
v 0.3863962 0.2617292 -0.5321648
v 0.3863962 0.2617292 -0.6678353
v 0.3700961 0.2454682 -0.71
v 0.4551441 0.3303121 -0.71
v 0.2 0.415156 -0.71
v 0.2850481 0.5 -0.71
v 0.3700961 0.2454682 -0.49
v 0.2 0.415156 -0.4900001
v 0.4551441 0.3303121 -0.49
v 0.285048 0.5 -0.49
vn 8.742278E-08 0 -1
vn 0.02214006 -0.02219322 -0.9980326
vn 0.05910563 -0.0592477 -0.9858931
vn -8.742278E-08 0 1
vn 0.02955268 -0.02962384 0.996492
vn 0.05910546 -0.0592477 0.9858931
vn 0.5 0 4.371139E-08
vn 0.4357943 0.2451191 3.809835E-08
vn 0.4357943 0.2451191 3.809835E-08
vn 0.4116718 0.2837716 3.598949E-08
vn 0.3838848 0.320363 3.356027E-08
vn -0.5 0 -4.371139E-08
vn 0.08803398 -0.08824582 0.9684269
vn 0.08803399 -0.08824584 0.9684269
vn 0.3531284 0.3539778 3.087146E-08
vn -0.2828789 -0.4122857 -2.473006E-08
vn -0.3194845 -0.3846162 -2.793022E-08
vn -0.3531284 -0.3539779 -3.087146E-08
vn 0.08803415 -0.08824582 -0.9684269
vn 0.08803415 -0.08824584 -0.9684269
vn -0.244225 -0.436296 -2.135083E-08
vn 0.3531284 0.3539779 3.087146E-08
vn -0.3531284 0.3539778 -3.087146E-08
vn -0.3531284 0.3539779 -3.087146E-08
vn -0.3531284 0.3539778 -3.087147E-08
vn -0.3531284 0.3539779 -3.087146E-08
vn 0.3531284 -0.3539778 3.087147E-08
vn 0.3531284 -0.3539778 3.087147E-08
vn 0.3531284 -0.3539778 3.087147E-08
vn 0.3531284 -0.3539778 3.087146E-08
vn -0.3531284 -0.3539778 -3.087146E-08
vt -0.5995668 0.49
vt -0.7 0.49
vt -0.5995669 0.71
vt -0.7 0.71
vt 0.49 0
vt 0.49 0.02039787
vt 0.71 0
vt 0.71 0.02039787
vt -0.5995669 0
vt -0.5995669 0.02039787
vt 0.5321648 0.3140511
vt 0.6678353 0.3140511
vt 0.5531937 0.2770942
vt 0.6468064 0.2770942
vt 0.5531937 0.05649998
vt 0.6468063 0.05649998
vt 0.5531937 0.02039787
vt 0.6468063 0.02039787
vt -0.534 0.457578
vt -0.534 0.415156
vt -0.6660001 0.457578
vt -0.6660001 0.415156
vt -0.2 -0.534
vt -0.2 -0.6660001
vt -0.242524 -0.534
vt -0.242524 -0.6660001
vt -0.4596309 -0.5531937
vt -0.4596309 -0.6468064
vt -0.6807558 -0.5531937
vt -0.6807558 -0.6468063
vt -0.4234419 0.6468064
vt -0.4234419 0.5531937
vt -0.6445668 0.6468064
vt -0.6445668 0.5531937
vt -0.438844 0.3140511
vt -0.3863962 0.6678353
vt -0.3863962 0.5321648
vt -0.49 0.02039787
vt -0.49 0
vt -0.71 0.02039787
vt -0.71 0
vt -0.5995669 -0.71
vt -0.6445668 -0.5531937
vt -0.5995668 -0.49
vt -0.7 -0.49
vt -0.6445668 -0.6468064
vt -0.7 -0.71
vt -0.2 0.415156
vt 0.3700961 0.2454682
vt 0.2 0.415156
vt -0.285048 -0.49
vt -0.285048 -0.71
vt -0.4551441 -0.49
vt -0.4551441 -0.71
vt -0.2 -0.49
vt -0.2 -0.71
vt -0.3700961 0.49
vt -0.3700961 0.71
vt -0.4551441 0.71
vt -0.438844 0.6678353
vt -0.438844 0.5321648
vt -0.4551441 0.49
vt -0.2 0.71
vt -0.2 0.6660001
vt -0.2 0.534
vt -0.2 0.49

usemtl glass (Instance) (Instance)
usemap glass (Instance) (Instance)
f 39/97/1 38/96/1 37/95/1
f 38/96/1 39/97/1 40/98/1
f 43/7/35 42/6/34 41/5/34
f 42/6/34 43/7/35 44/8/34
f 44/8/34 43/7/35 45/9/36
f 48/12/37 47/11/37 46/10/37
f 47/11/37 48/12/37 49/13/38
f 49/13/38 48/12/37 50/14/39
f 40/101/40 51/100/40 38/99/40
f 51/100/40 40/101/40 52/102/40
f 53/104/34 40/20/34 39/103/34
f 40/20/34 53/104/34 52/22/34
f 51/25/37 37/24/37 38/23/37
f 37/24/37 51/25/37 54/26/37
f 50/107/43 56/106/42 55/105/41
f 56/106/42 50/107/43 45/108/44
f 46/111/40 44/110/40 48/109/40
f 44/110/40 46/111/40 42/112/40
f 59/115/45 58/114/45 57/113/45
f 58/114/45 59/115/45 60/116/45
f 61/119/14 59/118/14 57/117/14
f 59/118/14 61/119/14 62/120/14
f 57/45/37 58/44/37 61/43/37
f 50/14/39 63/46/46 49/13/38
f 63/46/46 50/14/39 55/47/47
f 48/123/48 45/122/44 50/121/43
f 45/122/44 48/123/48 44/124/48
f 41/127/51 49/126/50 43/125/49
f 49/126/50 41/127/51 47/128/51
f 62/58/34 60/57/34 59/56/34
f 64/59/52 45/9/36 43/7/35
f 45/9/36 64/59/52 56/129/53
f 43/125/49 63/131/54 64/130/54
f 63/131/54 43/125/49 49/126/50
f 53/134/45 37/133/45 54/132/45
f 37/133/45 53/134/45 39/135/45
f 54/138/14 47/137/14 53/136/14
f 47/137/14 54/138/14 51/139/14
f 47/137/14 51/139/14 46/123/14
f 46/123/14 51/139/14 42/124/14
f 41/140/14 53/136/14 47/137/14
f 53/136/14 41/140/14 52/141/14
f 52/141/14 41/140/14 42/124/14
f 52/141/14 42/124/14 51/139/14

usemtl _defaultMat (Instance) (Instance)
usemap _defaultMat (Instance) (Instance)
f 67/142/34 66/74/34 65/73/34
f 66/74/34 67/142/34 68/75/34
f 71/77/37 70/144/37 69/143/37
f 70/144/37 71/77/37 72/78/37
f 71/147/55 68/146/55 72/145/55
f 68/146/55 71/147/55 66/148/55
f 72/145/58 58/117/57 70/149/56
f 58/117/57 72/145/58 61/119/57
f 61/119/57 72/145/58 62/120/56
f 68/146/56 62/120/56 72/145/58
f 67/150/57 62/120/56 68/146/56
f 62/120/56 67/150/57 60/118/59
f 65/152/60 64/130/61 69/151/60
f 64/130/61 65/152/60 66/153/62
f 64/130/61 66/153/62 56/154/61
f 56/154/61 66/153/62 55/155/60
f 63/131/62 69/151/60 64/130/61
f 69/151/60 63/131/62 71/156/63
f 71/156/63 63/131/62 55/155/60
f 71/156/63 55/155/60 66/153/62
f 65/152/51 60/158/64 67/157/64
f 60/158/64 65/152/51 58/159/64
f 58/159/64 65/152/51 70/160/51
f 70/160/51 65/152/51 69/151/51
